<!-- Generated by IcoMoon.io -->
<svg version="1.1" xmlns="http://www.w3.org/2000/svg" width="32" height="32" viewBox="0 0 32 32">
<path fill="#000" opacity="0.806" d="M18.4 19.68c0.628-0.467 1.215-1 1.76-1.6 0.821-1.771 1.621-3.531 2.4-5.28-0.404-1.383-0.404-2.769 0-4.16-0.181-1.247-0.448-2.474-0.8-3.68-0.904-1.404-2.131-2.417-3.68-3.040-1.6-0.213-3.2-0.213-4.8 0-1.867 0.587-3.093 1.813-3.68 3.68-0.081 2.48-0.134 4.934-0.16 7.36 0.053 0.427 0.107 0.853 0.16 1.28 0.747 1.387 1.493 2.773 2.24 4.16 0.271 0.988 0.111 1.895-0.48 2.72-2.065 0.873-4.092 1.833-6.080 2.88-1.574 1.28-2.427 2.934-2.56 4.96 5.009 0.32 10.022 0.426 15.040 0.32-1.453-3.331-1.24-6.531 0.64-9.6zM18.4 19.68c-0.91 0.215-1.71 0.642-2.4 1.28-0.775-0.467-1.575-0.894-2.4-1.28-0.386-0.635-0.386-1.275 0-1.92-1.064-1.062-1.598-2.342-1.6-3.84-0.32 0-0.64 0-0.96 0 0.091-2.653 0.144-5.32 0.16-8 0.853-1.911 2.346-2.764 4.48-2.56 0.587 0.053 1.173 0.107 1.76 0.16 0.634 0.604 1.381 1.031 2.24 1.28 0.307 0.454 0.574 0.934 0.8 1.44 0.213 1.6 0.213 3.2 0 4.8-0.594 0.716-0.434 1.303 0.48 1.76-0.268 0.324-0.374 0.697-0.32 1.12-0.32 0-0.64 0-0.96 0 0.080 1.226-0.293 2.293-1.12 3.2-0.159 0.847-0.212 1.7-0.16 2.56zM12.96 21.6c1.549 0.22 1.655 0.754 0.32 1.6-1.075-0.413-1.182-0.946-0.32-1.6zM14.88 24.48c-0.514 1.117-0.834 2.29-0.96 3.52-3.101 0.106-6.194-0-9.28-0.32 0.483-1.126 1.229-2.032 2.24-2.72 1.357-0.545 2.69-1.132 4-1.76 0.466 0.787 1.053 1.48 1.76 2.080 0.427 0.213 0.853 0.213 1.28 0 0.28-0.334 0.6-0.601 0.96-0.8z"></path>
<path fill="#000" opacity="0.793" d="M31.84 23.2c-0.818 0.118-1.458-0.149-1.92-0.8 0.358-0.556 0.678-1.143 0.96-1.76-0.586-1.080-1.439-1.666-2.56-1.76-1.346 1.116-1.986 0.743-1.92-1.12-1.067 0-2.133 0-3.2 0 0.077 0.63-0.030 1.216-0.32 1.76-0.756-0.028-1.449-0.295-2.080-0.8-0.73 0.408-1.37 0.942-1.92 1.6 0.155 0.864 0.421 1.717 0.8 2.56-0.64 0.107-1.28 0.213-1.92 0.32 0 1.067 0 2.133 0 3.2 0.64 0 1.28 0 1.92 0-0.055 0.857-0.375 1.604-0.96 2.24 0.635 0.795 1.328 1.541 2.080 2.24 0.648-0.702 1.448-1.022 2.4-0.96 0 0.64 0 1.28 0 1.92 1.067 0 2.133 0 3.2 0-0.118-0.818 0.149-1.458 0.8-1.92 0.533 0.32 1.067 0.64 1.6 0.96 1.171-0.522 1.811-1.375 1.92-2.56-1.23-1.485-0.856-2.125 1.12-1.92 0-1.067 0-2.133 0-3.2zM28.32 21.28c-0.651 2.058 0.095 3.178 2.24 3.36-2.101 0.416-2.847 1.642-2.24 3.68-1.877-0.636-2.997 0.004-3.36 1.92-0.673-2.044-1.953-2.578-3.84-1.6-0.037-0.514 0.123-0.994 0.48-1.44-0.182-0.599-0.395-1.186-0.64-1.76-2.467-0.688-2.467-1.008 0-0.96 0.072-0.732 0.285-1.425 0.64-2.080-0.157-0.364-0.263-0.738-0.32-1.12 2.038 0.607 3.264-0.139 3.68-2.24 0.184 2.109 1.304 2.856 3.36 2.24zM24.16 23.84c1.491-0.155 1.917 0.431 1.28 1.76-1.527 0.259-1.954-0.327-1.28-1.76z"></path>
<path fill="#000" opacity="0.779" d="M23.52 22.24c3.635-0.253 4.702 1.294 3.2 4.64-3.372 1.279-4.811 0.159-4.32-3.36 0.221-0.592 0.594-1.019 1.12-1.28zM24.16 23.84c-0.674 1.433-0.247 2.019 1.28 1.76 0.637-1.329 0.211-1.915-1.28-1.76z"></path>
</svg>
